<?xml version="1.0" encoding="iso-8859-1"?>
<!-- Generator: Adobe Illustrator 16.0.0, SVG Export Plug-In . SVG Version: 6.00 Build 0)  -->
<!DOCTYPE svg PUBLIC "-//W3C//DTD SVG 1.1//EN" "http://www.w3.org/Graphics/SVG/1.1/DTD/svg11.dtd">
<svg version="1.1" id="Layer_1" xmlns="http://www.w3.org/2000/svg" xmlns:xlink="http://www.w3.org/1999/xlink" x="0px" y="0px"
	 width="80px" height="80px" viewBox="0 0 80 80" style="enable-background:new 0 0 80 80;" xml:space="preserve">
<path style="fill:#010101;" d="M19.604,21.963c4.3,0,7.798-3.499,7.798-7.799c0-4.3-3.499-7.798-7.798-7.798
	c-4.3,0-7.799,3.499-7.799,7.798C11.805,18.465,15.304,21.963,19.604,21.963z M19.604,8.366c3.197,0,5.798,2.601,5.798,5.798
	c0,3.198-2.601,5.799-5.798,5.799s-5.799-2.602-5.799-5.799C13.805,10.967,16.407,8.366,19.604,8.366z M60.396,21.963
	c4.3,0,7.799-3.499,7.799-7.799c0-4.3-3.499-7.798-7.799-7.798s-7.799,3.499-7.799,7.798C52.598,18.465,56.097,21.963,60.396,21.963
	z M60.396,8.366c3.197,0,5.799,2.601,5.799,5.798c0,3.198-2.602,5.799-5.799,5.799s-5.799-2.602-5.799-5.799
	C54.598,10.967,57.199,8.366,60.396,8.366z M68.74,27.193c-0.601-1.038-1.59-1.91-2.715-2.393c-0.123-0.053-0.252-0.078-0.379-0.079
	c-1.721-0.634-5.646-0.744-8.113-0.744c-0.688,0-2.015,0.127-3.172,0.417c-0.004,0.001-0.007,0-0.011,0
	c-0.014,0.003-0.027,0.009-0.041,0.013c-0.716,0.183-1.357,0.428-1.739,0.744c-1.016,0.601-1.815,1.402-2.078,2.17
	c-0.462,0.948-3.208,6.615-3.797,8.487c-0.683,0.539-3.3,2.197-4.606,3.024c-1.16,0.735-1.727,1.094-1.918,1.241
	c-0.06,0.045-0.112,0.094-0.169,0.14c-0.058-0.046-0.111-0.095-0.171-0.14c-0.192-0.146-0.759-0.507-1.921-1.243
	c-1.306-0.827-3.921-2.483-4.604-3.022c-0.587-1.867-3.335-7.541-3.796-8.487c-0.263-0.768-1.063-1.57-2.078-2.17
	c-0.379-0.313-1.015-0.557-1.724-0.739c-0.019-0.005-0.036-0.013-0.055-0.018c-0.005-0.001-0.009,0-0.014-0.001
	c-1.157-0.289-2.482-0.416-3.17-0.416c-2.465,0-6.388,0.109-8.11,0.743c-0.128,0.001-0.258,0.026-0.382,0.08
	c-1.125,0.483-2.115,1.355-2.715,2.392c-0.473,0.814-4.619,8.019-4.756,10.351c-0.053,0.903,0.6,2.11,1.76,4.165
	c0.921,1.632,2.182,3.866,2.182,4.947c0,2.581,1.017,3.89,3.022,3.89c0.064,0,0.146-0.004,0.234-0.011
	c-0.362,9.286-1.131,14.896-1.47,17.359c-0.067,0.491-0.118,0.862-0.146,1.118c-0.154,1.384,0.175,2.609,0.928,3.449
	c0.663,0.741,1.596,1.133,2.697,1.133c1.676,0,3.231-1.338,3.662-3.012c0.087,0.797,0.369,1.499,0.822,2.02
	c0.411,0.472,1.171,1.033,2.458,1.033c2.92,0,3.506-2.351,3.837-3.694c1.325-8.127,1.978-20.371,2.191-29.471
	c1.669,1.658,7.317,4.628,7.379,4.659c0.496,0.242,1.575,0.771,2.76,0.771c0.399,0,0.811-0.064,1.217-0.215
	c0.354,0.122,0.723,0.207,1.126,0.207c0.817,0,1.738-0.254,2.779-0.764c0.063-0.03,5.701-2.998,7.38-4.661
	c0.214,9.103,0.869,21.361,2.206,29.555c0.314,1.264,0.899,3.614,3.822,3.614c1.285,0,2.045-0.562,2.456-1.032
	c0.454-0.521,0.735-1.225,0.823-2.022c0.429,1.675,1.984,3.014,3.662,3.014c1.102,0,2.033-0.392,2.696-1.132
	c0.752-0.841,1.082-2.065,0.929-3.45c-0.028-0.255-0.079-0.624-0.146-1.112c-0.339-2.462-1.108-8.071-1.471-17.363
	c0.084,0.005,0.163,0.009,0.233,0.009c2.006,0,3.022-1.309,3.022-3.89c0-1.081,1.262-3.316,2.183-4.948
	c1.159-2.054,1.813-3.26,1.76-4.165C73.356,35.16,68.928,27.516,68.74,27.193z M13.923,37.047l0.001,2.3
	c-0.274-0.663-0.494-1.236-0.523-1.459C13.49,37.723,13.684,37.415,13.923,37.047z M24.531,69.538
	c-0.425,1.705-0.776,2.097-1.88,2.097c-0.647,0-0.875-0.262-0.95-0.348c-0.3-0.345-0.425-1.01-0.325-1.736
	c0.875-6.349,1.162-12.928,0.852-19.556c-0.025-0.533-0.553-0.953-1.087-0.953c-0.518,0-0.951,0.396-0.996,0.912
	c-0.868,9.815-2.625,19.549-2.643,19.646c-0.008,0.045-0.013,0.09-0.015,0.135c-0.037,0.837-0.864,1.858-1.778,1.858
	c-0.524,0-0.93-0.157-1.207-0.466c-0.368-0.411-0.521-1.084-0.431-1.896c0.027-0.244,0.076-0.598,0.141-1.066
	c0.356-2.59,1.183-8.619,1.528-18.672c0.452-0.569,0.784-1.442,0.784-2.781c0-0.724-0.269-1.675-0.654-2.72
	c0.017-1.228,0.026-2.497,0.026-3.818c0.014-0.076,0.024-0.157,0.024-0.217v-6.226h-0.019c0-0.324-0.139-0.642-0.429-0.833
	c-0.461-0.307-1.081-0.179-1.386,0.281l-0.704,1.057c-1.26,1.889-1.75,2.638-1.921,3.112c-0.218,0.83,0.289,2.051,1.362,4.516
	c0.757,1.736,1.699,3.898,1.699,4.85c0,1.832-0.714,1.832-1.057,1.832c-0.479,0-1.022,0-1.022-1.89c0-1.606-1.24-3.805-2.44-5.93
	C9.377,39.613,8.518,38.09,8.5,37.66c0.078-1.313,2.725-6.423,4.49-9.465c0.185-0.318,0.727-1.107,1.774-1.557
	c0.157-0.067,0.276-0.177,0.376-0.302l0.059,0.044c-0.106,0.143-0.217,0.196-0.219,0.197c0.529-0.25,3.634-0.6,7.487-0.6
	c0.912,0,1.99,0.183,2.755,0.377c0.288,0.082,0.551,0.185,0.792,0.3c0.224,0.776,0.748,3.06,0.748,7.487
	C26.762,42.859,26.164,59.501,24.531,69.538z M36.939,43.331c-1.071-0.524-6.335-3.543-6.882-4.263
	c-0.054-0.107-0.223-0.441-1.314-2.173c0.012-0.976,0.019-1.911,0.019-2.753c0-1.63-0.07-2.987-0.171-4.113
	c1.252,2.634,2.677,5.763,2.844,6.515c0.12,0.534,0.145,0.646,5.403,3.976c0.807,0.511,1.641,1.039,1.782,1.146
	c0.286,0.217,0.511,0.432,0.693,0.634c0.001,0.001,0.001,0.002,0.002,0.003c0,0,0,0,0.001,0.001c0.478,0.531,0.633,0.97,0.614,1.081
	C39.646,43.703,39.056,44.37,36.939,43.331z M49.976,39.016c-0.574,0.768-5.843,3.79-6.914,4.315
	c-0.483,0.236-0.874,0.376-1.2,0.459c0.039-0.204,0.059-0.416,0.037-0.637c-0.047-0.479-0.238-0.977-0.545-1.464
	c0.01-0.008,0.017-0.017,0.026-0.024c0.142-0.106,0.974-0.634,1.778-1.143c5.265-3.334,5.287-3.433,5.406-3.979
	c0.166-0.75,1.594-3.88,2.846-6.515c-0.102,1.126-0.172,2.483-0.172,4.115c0,0.842,0.008,1.777,0.02,2.754
	C50.288,38.433,50.043,38.867,49.976,39.016z M66.078,39.332v-2.285c0.227,0.349,0.41,0.639,0.503,0.805
	C66.541,38.136,66.335,38.699,66.078,39.332z M69.995,40.724c-1.199,2.126-2.44,4.325-2.44,5.931c0,1.89-0.543,1.89-1.022,1.89
	c-0.343,0-1.057,0-1.057-1.832c0-0.952,0.942-3.114,1.699-4.852c1.073-2.462,1.58-3.683,1.363-4.513
	c-0.009-0.034-0.02-0.066-0.031-0.099c-0.144-0.381-0.641-1.142-1.922-3.06l-0.674-1.011c-0.305-0.459-0.926-0.587-1.386-0.281
	c-0.289,0.192-0.428,0.51-0.429,0.833h-0.019l0.002,6.293c0.005,0.061,0.013,0.115,0.022,0.16c0.001,1.318,0.011,2.583,0.027,3.806
	c-0.386,1.046-0.654,1.998-0.654,2.722c0,1.356,0.331,2.234,0.786,2.805c0.345,10.046,1.171,16.067,1.526,18.654
	c0.064,0.466,0.113,0.818,0.14,1.061c0.09,0.812-0.063,1.484-0.431,1.896c-0.276,0.309-0.683,0.466-1.206,0.466
	c-0.914,0-1.741-1.021-1.777-1.857c-0.002-0.046-0.007-0.091-0.016-0.136c-0.018-0.098-1.776-9.831-2.644-19.646
	c-0.046-0.517-0.564-0.912-1.083-0.912c-0.534,0-0.974,0.42-0.999,0.953c-0.312,6.62-0.025,13.199,0.852,19.555
	c0.1,0.728-0.025,1.394-0.326,1.737c-0.074,0.086-0.303,0.348-0.948,0.348c-1.105,0-1.457-0.392-1.864-2.017
	c-1.648-10.118-2.247-26.76-2.247-35.476c0-4.433,0.525-6.718,0.748-7.487c0.241-0.116,0.506-0.219,0.794-0.301
	c0.766-0.194,1.842-0.377,2.753-0.377c3.854,0,6.958,0.349,7.487,0.6c-0.001-0.001-0.111-0.054-0.218-0.197l0.059-0.043
	c0.1,0.125,0.219,0.234,0.375,0.301c1.047,0.45,1.589,1.239,1.774,1.559c1.765,3.037,4.412,8.145,4.489,9.45
	C71.482,38.09,70.623,39.612,69.995,40.724z"/>
</svg>
