<?xml version="1.0" encoding="iso-8859-1"?>
<!-- Generator: Adobe Illustrator 16.0.0, SVG Export Plug-In . SVG Version: 6.00 Build 0)  -->
<!DOCTYPE svg PUBLIC "-//W3C//DTD SVG 1.1//EN" "http://www.w3.org/Graphics/SVG/1.1/DTD/svg11.dtd">
<svg version="1.1" id="Layer_1" xmlns="http://www.w3.org/2000/svg" xmlns:xlink="http://www.w3.org/1999/xlink" x="0px" y="0px"
	 width="80px" height="80px" viewBox="0 0 80 80" style="enable-background:new 0 0 80 80;" xml:space="preserve">
<path style="fill-rule:evenodd;clip-rule:evenodd;fill:#010101;" d="M75.754,46.041H65.685v10.07h-8.056v-10.07H47.56v-8.055h10.069
	V27.917h8.056v10.069h10.069V46.041z M39.942,54.222c0,6.952-6.612,13.973-19.104,13.973c-10.535,0-15.613-5.096-15.613-10.568
	c0-2.655,1.31-6.432,5.607-9.023c4.49-2.809,10.593-3.181,13.867-3.412c-1.02-1.32-2.181-2.722-2.181-5.023
	c0-1.239,0.364-1.984,0.736-2.879c-0.809,0.071-1.607,0.147-2.335,0.147c-7.697,0-12.069-5.853-12.069-11.621
	c0-3.402,1.532-7.19,4.668-9.909c4.126-3.485,9.078-4.1,12.992-4.1h14.965l-4.653,2.452H32.32c1.669,1.648,5.17,4.492,5.17,10.115
	c0,5.47-3.054,8.191-6.11,10.619c-0.938,0.965-2.043,2.012-2.043,3.632c0,1.623,1.105,2.518,1.906,3.17l2.609,2.077
	C37.045,46.606,39.942,49.134,39.942,54.222z M29.279,33.293c1.658-1.707,1.803-4.067,1.803-5.384
	c0-5.336-3.121-13.614-9.149-13.614c-1.886,0-3.917,0.958-5.09,2.455c-1.231,1.534-1.608,3.534-1.608,5.452
	c0,4.956,2.855,13.173,9.094,13.173C26.158,35.375,28.107,34.474,29.279,33.293z M35.077,57.103c0-3.774-2.39-5.765-7.906-9.755
	c-0.582-0.071-0.946-0.071-1.678-0.071c-0.655,0-4.575,0.142-7.626,1.181c-1.605,0.598-6.243,2.367-6.243,7.615
	c0,5.249,5.007,9.024,12.78,9.024C31.379,65.097,35.077,61.683,35.077,57.103z"/>
</svg>
