<?xml version="1.0" encoding="iso-8859-1"?>
<!-- Generator: Adobe Illustrator 16.0.0, SVG Export Plug-In . SVG Version: 6.00 Build 0)  -->
<!DOCTYPE svg PUBLIC "-//W3C//DTD SVG 1.1//EN" "http://www.w3.org/Graphics/SVG/1.1/DTD/svg11.dtd">
<svg version="1.1" id="Layer_1" xmlns="http://www.w3.org/2000/svg" xmlns:xlink="http://www.w3.org/1999/xlink" x="0px" y="0px"
	 width="80px" height="80px" viewBox="0 0 80 80" style="enable-background:new 0 0 80 80;" xml:space="preserve">
<path style="fill:#010101;" d="M74.889,50.817c-0.92-1.199-3.101-2.714-7.741-0.504c-0.062-0.577-0.231-1.081-0.511-1.509
	c-0.478-0.73-1.238-1.204-2.262-1.407c-1.513-0.297-3.464,0.081-5.304,0.981c-0.184-0.83-0.646-1.359-1.096-1.688
	c-1.964-1.444-5.67-0.458-7.554,0.664c-1.935,1.152-7.973,4.969-9.595,5.995c-1.921-0.496-3.617-1.074-4.394-1.541
	c-0.468-0.281-0.924-0.782-1.452-1.363c-1.742-1.915-4.127-4.538-10.856-4.538c-3.504,0-5.161,0.686-6.914,1.412
	c-0.268,0.11-0.541,0.224-0.827,0.337c-3.73,1.479-10.168,4.566-10.44,4.697c-0.498,0.239-0.708,0.836-0.468,1.334
	s0.837,0.709,1.334,0.469c0.066-0.031,6.646-3.188,10.311-4.641c0.296-0.117,0.579-0.233,0.856-0.349
	c1.699-0.704,3.042-1.26,6.148-1.26c5.845,0,7.803,2.153,9.377,3.884c0.608,0.669,1.183,1.301,1.902,1.732
	c0.941,0.565,2.905,1.243,5.094,1.804c0.144,0.076,0.306,0.117,0.469,0.117c2.366,0.579,4.923,1.008,6.706,1.008
	c1.754,0,4.696,0.333,4.696,2.56c0,0.634,0,2.561-4.696,2.561h-8.261c-3.65,0-8.504-1.372-8.553-1.386
	c-0.531-0.146-1.084,0.156-1.236,0.688c-0.152,0.531,0.156,1.084,0.687,1.236c0.209,0.06,5.168,1.462,9.102,1.462h8.261
	c3.189,0,4.894-0.856,5.782-1.91c0.09-0.028,0.176-0.069,0.258-0.124l12.856-8.648c3.279-1.938,5.67-2.242,6.732-0.855
	c0.338,0.44,0.466,0.889,0.394,1.37c-0.148,0.977-1.12,2.146-2.739,3.292c-1.836,1.305-20.245,13.552-22.768,15.01
	c-0.401,0.233-0.797,0.482-1.196,0.734c-2.52,1.589-4.9,3.093-9.873,0.672c-1.467-0.716-6.186-3.166-9.631-4.956
	c-1.333-0.691-2.49-1.293-3.225-1.672c-3.175-1.639-4.74-1.258-7.056,0.222l-3.842,2.507c-0.462,0.302-0.593,0.922-0.291,1.385
	c0.302,0.463,0.922,0.591,1.384,0.291l3.834-2.502c1.789-1.144,2.576-1.406,5.053-0.125c0.734,0.379,1.89,0.979,3.22,1.67
	c3.455,1.794,8.187,4.252,9.677,4.979c2.214,1.078,4.034,1.486,5.587,1.486c2.636,0,4.505-1.178,6.229-2.265
	c0.377-0.238,0.752-0.475,1.132-0.695c2.661-1.539,21.012-13.751,22.922-15.108c2.125-1.506,3.322-3.062,3.56-4.624
	C75.826,52.686,75.555,51.688,74.889,50.817z M49.809,54.621c-0.651-0.111-1.366-0.169-2.137-0.169
	c-1.092,0-2.559-0.189-4.084-0.481c2.461-1.553,6.401-4.03,7.857-4.897c1.59-0.946,4.367-1.49,5.347-0.771
	c0.122,0.089,0.469,0.344,0.327,1.28L49.809,54.621z M65.118,51.454l-10.761,7.239c-0.098-1.435-0.858-2.554-2.171-3.281
	l6.406-4.416c0.053-0.036,0.101-0.076,0.144-0.119c2.014-1.357,4.119-1.742,5.25-1.517c0.717,0.142,0.912,0.44,0.977,0.538
	C65.176,50.225,65.229,50.758,65.118,51.454z M22.547,24.576l2.243-2.336v21.335h32.804V22.242l2.241,2.335
	c0.382,0.399,1.017,0.412,1.414,0.029c0.398-0.383,0.411-1.016,0.029-1.414L41.192,2.264L21.104,23.191
	c-0.382,0.398-0.369,1.031,0.029,1.414C21.533,24.988,22.165,24.974,22.547,24.576z M45.056,41.575H37.33V26.551h7.726V41.575z
	 M26.791,20.156L41.192,5.152l14.402,15.006v21.417h-8.539V24.551H35.33v17.024h-8.539V20.156z"/>
</svg>
