<?xml version="1.0" encoding="iso-8859-1"?>
<!-- Generator: Adobe Illustrator 16.0.0, SVG Export Plug-In . SVG Version: 6.00 Build 0)  -->
<!DOCTYPE svg PUBLIC "-//W3C//DTD SVG 1.1//EN" "http://www.w3.org/Graphics/SVG/1.1/DTD/svg11.dtd">
<svg version="1.1" id="Layer_1" xmlns="http://www.w3.org/2000/svg" xmlns:xlink="http://www.w3.org/1999/xlink" x="0px" y="0px"
	 width="80px" height="80px" viewBox="0 0 80 80" style="enable-background:new 0 0 80 80;" xml:space="preserve">
<g id="Coins_x5F_Dollar_7_">
	<defs>
		<rect id="SVGID_1_" x="2.254" y="12.87" width="75.492" height="54.26"/>
	</defs>
	<clipPath id="SVGID_2_">
		<use xlink:href="#SVGID_1_"  style="overflow:visible;"/>
	</clipPath>
	<path style="clip-path:url(#SVGID_2_);fill:#939292;" d="M61.232,41.18h2.359c0-2.921-2.553-5.34-5.898-5.809v-2.448h-2.359v2.448
		c-3.345,0.469-5.897,2.888-5.897,5.809c0,2.921,2.553,5.34,5.897,5.809v7.035c-2.005-0.405-3.538-1.795-3.538-3.407h-2.359
		c0,2.921,2.553,5.34,5.897,5.809v2.448h2.359v-2.448c3.346-0.469,5.898-2.888,5.898-5.809c0-2.922-2.553-5.341-5.898-5.81v-7.035
		C59.699,38.178,61.232,39.567,61.232,41.18z M55.334,44.587c-2.005-0.405-3.538-1.795-3.538-3.407c0-1.613,1.533-3.002,3.538-3.408
		V44.587z M61.232,50.616c0,1.612-1.533,3.002-3.539,3.407v-6.814C59.699,47.614,61.232,49.003,61.232,50.616z M56.514,24.666
		c-11.727,0-21.232,9.506-21.232,21.232c0,11.727,9.505,21.232,21.232,21.232s21.232-9.506,21.232-21.232
		C77.746,34.171,68.24,24.666,56.514,24.666z M56.514,64.771c-10.406,0-18.873-8.466-18.873-18.873
		c0-10.406,8.467-18.873,18.873-18.873s18.873,8.466,18.873,18.873C75.387,56.305,66.92,64.771,56.514,64.771z M30.563,64.771
		v-2.358h9.116c-0.723-0.737-1.385-1.532-2.006-2.359h-7.11v-2.359h5.541c-0.441-0.763-0.85-1.546-1.206-2.359h-4.334v-2.358h3.442
		c-0.242-0.771-0.446-1.558-0.609-2.359h-2.833v-2.359h2.478c-0.077-0.776-0.118-1.562-0.118-2.359h-2.359v-2.358h2.478
		c0.08-0.8,0.198-1.585,0.355-2.359h-2.833V38.82h3.442c0.254-0.808,0.558-1.592,0.893-2.359h-4.334v-2.359h5.541
		c0.476-0.82,1.001-1.605,1.569-2.359h-7.11v-2.359h9.116c0.842-0.858,1.758-1.638,2.722-2.359H30.563v-2.359h15.719
		c1.014-0.489,2.069-0.903,3.154-1.249v-0.028v-1.083v-2.359v-2.359v-2.359V12.87h-2.359h-25.95v9.437H2.254V67.13h44.028
		c-1.374-0.663-2.671-1.453-3.881-2.359H30.563z M23.486,15.229h23.591v2.359H23.486V15.229z M23.486,19.947h23.591v2.359H23.486
		V19.947z M28.204,64.771H4.613v-2.358h23.591V64.771z M28.204,60.053H4.613v-2.359h23.591V60.053z M28.204,55.334H4.613v-2.358
		h23.591V55.334z M28.204,50.616H4.613v-2.359h23.591V50.616z M28.204,45.897H4.613v-2.358h23.591V45.897z M28.204,41.18H4.613
		V38.82h23.591V41.18z M28.204,36.461H4.613v-2.359h23.591V36.461z M28.204,31.743H4.613v-2.359h23.591V31.743z M28.204,27.025
		H4.613v-2.359h23.591V27.025z"/>
</g>
</svg>
