<?xml version="1.0" encoding="iso-8859-1"?>
<!-- Generator: Adobe Illustrator 16.0.0, SVG Export Plug-In . SVG Version: 6.00 Build 0)  -->
<!DOCTYPE svg PUBLIC "-//W3C//DTD SVG 1.1//EN" "http://www.w3.org/Graphics/SVG/1.1/DTD/svg11.dtd">
<svg version="1.1" id="Layer_1" xmlns="http://www.w3.org/2000/svg" xmlns:xlink="http://www.w3.org/1999/xlink" x="0px" y="0px"
	 width="80px" height="80px" viewBox="0 0 80 80" style="enable-background:new 0 0 80 80;" xml:space="preserve">
<path style="fill:#010101;" d="M73.674,76.329l-0.063-1.06c-0.598-9.955-8.678-13.146-15.171-15.71
	c-4.222-1.667-7.876-3.11-8.989-5.867c-0.177-2.033-0.163-3.584-0.147-5.374c0.004-0.363,0.007-0.733,0.009-1.116
	c1.538-1.357,3.262-5.021,3.774-8.084c1.111-0.417,2.63-1.7,3.09-5.529c0.223-1.855-0.396-3.212-1.16-4.004
	c0.82-2.719,3.233-12.042-0.27-17.682c-1.409-2.268-3.576-3.671-6.445-4.176c-1.425-2.004-4.403-3.101-8.48-3.101
	c-6.086,0.112-10.522,1.946-13.184,5.453c-3.228,4.254-3.773,10.804-1.623,19.476c-0.777,0.788-1.416,2.156-1.19,4.033
	c0.459,3.828,1.978,5.111,3.088,5.529c0.539,3.245,2.38,6.774,3.867,8.083c0.002,0.377,0.005,0.742,0.008,1.101
	c0.016,1.795,0.029,3.351-0.148,5.391c-1.114,2.757-4.783,4.2-9.021,5.867C15.1,62.124,6.988,65.314,6.39,75.27l-0.064,1.06H38.6
	l6.304,0.044c0-0.015-0.002-0.029-0.002-0.044H73.674z M51.131,58.357l-4.257,5.102l-5.089-6.242l5.7-3.14l0.044,0.193
	C48.173,56.002,49.47,57.289,51.131,58.357z M32.56,54.271l0.034-0.149l5.621,3.096l-5.089,6.242l-4.229-5.067
	C30.588,57.316,31.909,56.021,32.56,54.271z M35.226,74.329H8.485c0.995-7.847,7.533-10.417,13.865-12.908
	c1.669-0.657,3.304-1.301,4.773-2.034l5.244,6.284c0.19,0.228,0.471,0.359,0.768,0.359c0.002,0,0.004,0,0.006,0
	c0.298-0.002,0.581-0.137,0.769-0.368l3.385-4.151l1.877,1.473C39.171,62.983,35.898,68.561,35.226,74.329z M32.843,51.975
	c-0.03-0.017-0.063-0.017-0.094-0.029c0.053-1.289,0.048-2.458,0.038-3.66c-0.004-0.512-0.009-1.036-0.009-1.589v-0.605l-0.536-0.28
	c-0.784-0.41-3.072-4.185-3.438-7.61l-0.087-0.823l-0.825-0.067c-0.749-0.062-1.743-1.135-2.083-3.96
	c-0.227-1.889,0.841-2.567,0.852-2.573l0.632-0.387l-0.187-0.717c-2.17-8.357-1.793-14.542,1.123-18.384
	c2.272-2.994,6.184-4.563,11.609-4.662c3.535,0,6.085,0.917,6.994,2.514l0.244,0.428l0.487,0.067
	c2.518,0.35,4.311,1.437,5.482,3.323c3.419,5.504,0.238,15.526-0.136,16.65l-0.251,0.755l0.68,0.414
	c0.011,0.007,1.077,0.681,0.85,2.573c-0.339,2.825-1.333,3.899-2.081,3.96l-0.825,0.067L51.195,38.2
	c-0.377,3.519-2.569,7.202-3.347,7.61l-0.536,0.281v0.604c0,0.559-0.005,1.089-0.01,1.604c-0.011,1.188-0.014,2.345,0.037,3.617
	c-0.062,0.019-0.124,0.024-0.183,0.057L40,55.917L32.843,51.975z M40.829,62.983l1.874-1.476l3.387,4.154
	c0.188,0.231,0.471,0.366,0.77,0.368c0.002,0,0.004,0,0.006,0c0.297,0,0.578-0.132,0.768-0.359l5.266-6.31
	c1.477,0.743,3.123,1.395,4.806,2.059c6.307,2.49,12.819,5.062,13.812,12.909H44.771C44.087,68.506,40.829,62.983,40.829,62.983z"/>
</svg>
